<svg width="169" height="45" viewBox="0 0 169 45" fill="none" xmlns="http://www.w3.org/2000/svg">
<path d="M31 3C31 1.34315 32.3431 0 34 0H136C137.657 0 139 1.34315 139 3V26H31V3Z" fill="#BF6F38"/>
<rect y="27" width="169" height="18" rx="1" fill="#B05C22"/>
<rect x="31" y="23" width="108" height="5" fill="#EFE84C"/>
<path d="M126.5 3L127.061 4.38197H128.878L127.408 5.23607L127.969 6.61803L126.5 5.76393L125.031 6.61803L125.592 5.23607L124.122 4.38197H125.939L126.5 3Z" fill="#F4F4F4"/>
<path d="M133.5 6L134.061 7.38197H135.878L134.408 8.23607L134.969 9.61803L133.5 8.76393L132.031 9.61803L132.592 8.23607L131.122 7.38197H132.939L133.5 6Z" fill="#F4F4F4"/>
<path d="M134.5 12L135.061 13.382H136.878L135.408 14.2361L135.969 15.618L134.5 14.7639L133.031 15.618L133.592 14.2361L132.122 13.382H133.939L134.5 12Z" fill="#F4F4F4"/>
<path d="M120.5 8L121.061 9.38197H122.878L121.408 10.2361L121.969 11.618L120.5 10.7639L119.031 11.618L119.592 10.2361L118.122 9.38197H119.939L120.5 8Z" fill="#F4F4F4"/>
<path d="M120.5 14L121.061 15.382H122.878L121.408 16.2361L121.969 17.618L120.5 16.7639L119.031 17.618L119.592 16.2361L118.122 15.382H119.939L120.5 14Z" fill="#F4F4F4"/>
<path d="M127.5 17L128.061 18.382H129.878L128.408 19.2361L128.969 20.618L127.5 19.7639L126.031 20.618L126.592 19.2361L125.122 18.382H126.939L127.5 17Z" fill="#F4F4F4"/>
</svg>
