<svg width="325" height="288" viewBox="0 0 325 288" fill="none" xmlns="http://www.w3.org/2000/svg">
<path d="M162.327 281.454C248.363 281.454 318.109 219.914 318.109 144C318.109 68.0859 248.363 6.54541 162.327 6.54541C76.2913 6.54541 6.54541 68.0859 6.54541 144C6.54541 219.914 76.2913 281.454 162.327 281.454Z" fill="url(#paint0_linear_2501_3464)"/>
<path d="M162.327 288C72.8116 288 0 223.409 0 144C0 64.5905 72.8116 0 162.327 0C251.843 0 324.655 64.5905 324.655 144C324.655 223.409 251.843 288 162.327 288ZM162.327 13.0909C80.0378 13.0909 13.0909 71.8167 13.0909 144C13.0909 216.183 80.0378 274.909 162.327 274.909C244.617 274.909 311.564 216.183 311.564 144C311.564 71.8167 244.617 13.0909 162.327 13.0909Z" fill="#F09797"/>
<path d="M183.057 169.527C181.355 169.527 179.68 168.794 178.501 167.38L163.447 149.132L147.083 167.564C144.91 169.999 141.192 170.208 138.757 168.061C136.322 165.888 136.113 162.17 138.26 159.735L159.205 136.172C160.331 134.915 161.928 134.182 163.604 134.182C163.63 134.182 163.683 134.182 163.709 134.182C165.437 134.208 167.06 134.994 168.133 136.329L187.56 159.892C189.629 162.406 189.262 166.124 186.775 168.192C185.675 169.108 184.34 169.527 183.031 169.527H183.057Z" fill="black"/>
<path d="M61.5279 163.636C68.7578 163.636 74.6188 160.12 74.6188 155.782C74.6188 151.444 68.7578 147.927 61.5279 147.927C54.298 147.927 48.437 151.444 48.437 155.782C48.437 160.12 54.298 163.636 61.5279 163.636Z" fill="#E74F4F"/>
<path d="M267.055 164.945C274.285 164.945 280.146 161.429 280.146 157.091C280.146 152.753 274.285 149.236 267.055 149.236C259.825 149.236 253.964 152.753 253.964 157.091C253.964 161.429 259.825 164.945 267.055 164.945Z" fill="#E74F4F"/>
<path d="M77.2288 133.71C75.527 133.71 73.8252 133.056 72.5423 131.747C70.0288 129.155 70.0812 125.018 72.647 122.478L100.138 95.642C102.73 93.1286 106.867 93.1548 109.406 95.7468C111.92 98.3388 111.867 102.475 109.302 105.015L81.8106 131.851C80.5277 133.082 78.8782 133.71 77.2288 133.71Z" fill="black"/>
<path d="M104.719 133.71C103.069 133.71 101.42 133.082 100.137 131.852L72.6461 105.015C70.0541 102.502 70.0018 98.3388 72.5414 95.7468C75.0549 93.1548 79.2177 93.1025 81.8097 95.6421L109.301 122.478C111.893 124.992 111.945 129.155 109.405 131.747C108.122 133.056 106.421 133.71 104.719 133.71Z" fill="black"/>
<path d="M218.599 133.71C216.897 133.71 215.195 133.056 213.912 131.747C211.399 129.155 211.425 125.018 214.017 122.478L241.508 95.6421C244.1 93.1287 248.237 93.181 250.776 95.7469C253.29 98.3389 253.264 102.476 250.672 105.015L223.181 131.852C221.898 133.082 220.248 133.71 218.599 133.71Z" fill="black"/>
<path d="M246.1 133.71C244.45 133.71 242.801 133.082 241.518 131.852L214.027 105.015C211.435 102.502 211.383 98.3388 213.922 95.7468C216.436 93.1548 220.599 93.1025 223.191 95.6421L250.681 122.478C253.273 124.992 253.326 129.155 250.786 131.747C249.503 133.056 247.801 133.71 246.1 133.71Z" fill="black"/>
<defs>
<linearGradient id="paint0_linear_2501_3464" x1="162.327" y1="6.54541" x2="162.327" y2="281.454" gradientUnits="userSpaceOnUse">
<stop stop-color="white"/>
<stop offset="1" stop-color="#FF3E3E"/>
</linearGradient>
</defs>
</svg>
