<svg width="128" height="60" viewBox="0 0 128 60" fill="none" xmlns="http://www.w3.org/2000/svg">
<path opacity="0.2" d="M54.375 22.0312C54.375 37.5 30 50.625 30 50.625C30 50.625 5.625 37.5 5.625 22.0312C5.625 18.6746 6.95842 15.4554 9.33193 13.0819C11.7054 10.7084 14.9246 9.375 18.2812 9.375C23.5758 9.375 28.1109 12.2602 30 16.875C31.8891 12.2602 36.4242 9.375 41.7188 9.375C45.0754 9.375 48.2946 10.7084 50.6681 13.0819C53.0416 15.4554 54.375 18.6746 54.375 22.0312Z" fill="#DF7676"/>
<path d="M41.7188 7.5C36.8789 7.5 32.6414 9.58125 30 13.0992C27.3586 9.58125 23.1211 7.5 18.2812 7.5C14.4287 7.50434 10.7351 9.0367 8.0109 11.7609C5.2867 14.4851 3.75434 18.1787 3.75 22.0312C3.75 38.4375 28.0758 51.7172 29.1117 52.2656C29.3848 52.4125 29.69 52.4894 30 52.4894C30.31 52.4894 30.6152 52.4125 30.8883 52.2656C31.9242 51.7172 56.25 38.4375 56.25 22.0312C56.2457 18.1787 54.7133 14.4851 51.9891 11.7609C49.2649 9.0367 45.5713 7.50434 41.7188 7.5ZM30 48.4688C25.7203 45.975 7.5 34.6148 7.5 22.0312C7.50372 19.173 8.64079 16.4329 10.6619 14.4119C12.6829 12.3908 15.423 11.2537 18.2812 11.25C22.8398 11.25 26.6672 13.6781 28.2656 17.5781C28.4069 17.922 28.6472 18.2162 28.956 18.4232C29.2648 18.6302 29.6282 18.7407 30 18.7407C30.3718 18.7407 30.7352 18.6302 31.044 18.4232C31.3528 18.2162 31.5931 17.922 31.7344 17.5781C33.3328 13.6711 37.1602 11.25 41.7188 11.25C44.577 11.2537 47.3171 12.3908 49.3381 14.4119C51.3592 16.4329 52.4963 19.173 52.5 22.0312C52.5 34.5961 34.275 45.9727 30 48.4688Z" fill="#F47B7B"/>
<path opacity="0.2" d="M122.375 22.0312C122.375 37.5 98 50.625 98 50.625C98 50.625 73.625 37.5 73.625 22.0312C73.625 18.6746 74.9584 15.4554 77.3319 13.0819C79.7054 10.7084 82.9246 9.375 86.2812 9.375C91.5758 9.375 96.1109 12.2602 98 16.875C99.8891 12.2602 104.424 9.375 109.719 9.375C113.075 9.375 116.295 10.7084 118.668 13.0819C121.042 15.4554 122.375 18.6746 122.375 22.0312Z" fill="#DF7676"/>
<path d="M109.719 7.5C104.879 7.5 100.641 9.58125 98 13.0992C95.3586 9.58125 91.1211 7.5 86.2812 7.5C82.4287 7.50434 78.7351 9.0367 76.0109 11.7609C73.2867 14.4851 71.7543 18.1787 71.75 22.0312C71.75 38.4375 96.0758 51.7172 97.1117 52.2656C97.3848 52.4125 97.69 52.4894 98 52.4894C98.31 52.4894 98.6152 52.4125 98.8883 52.2656C99.9242 51.7172 124.25 38.4375 124.25 22.0312C124.246 18.1787 122.713 14.4851 119.989 11.7609C117.265 9.0367 113.571 7.50434 109.719 7.5ZM98 48.4688C93.7203 45.975 75.5 34.6148 75.5 22.0312C75.5037 19.173 76.6408 16.4329 78.6619 14.4119C80.6829 12.3908 83.423 11.2537 86.2812 11.25C90.8398 11.25 94.6672 13.6781 96.2656 17.5781C96.4069 17.922 96.6472 18.2162 96.956 18.4232C97.2648 18.6302 97.6282 18.7407 98 18.7407C98.3718 18.7407 98.7352 18.6302 99.044 18.4232C99.3528 18.2162 99.5931 17.922 99.7344 17.5781C101.333 13.6711 105.16 11.25 109.719 11.25C112.577 11.2537 115.317 12.3908 117.338 14.4119C119.359 16.4329 120.496 19.173 120.5 22.0312C120.5 34.5961 102.275 45.9727 98 48.4688Z" fill="#F47B7B"/>
<path d="M55 19.5163C55 19.5163 60.5949 16.224 64.4593 16.5159C68.1319 16.7933 73.5 19.5163 73.5 19.5163" stroke="#F47B7B" stroke-width="3"/>
</svg>
